<svg xmlns="http://www.w3.org/2000/svg" xmlns:xlink="http://www.w3.org/1999/xlink" width="18.547" height="19.375" viewBox="0 0 18.547 19.375"><defs><linearGradient id="a" y1="0.5" x2="1" y2="0.5" gradientUnits="objectBoundingBox"><stop offset="0" stop-color="#ee0979"/><stop offset="1" stop-color="#ff6a00"/></linearGradient></defs><path d="M7.383-6.133a8.034,8.034,0,0,0,0-2.734l1.641-.977a.421.421,0,0,0,.215-.234.515.515,0,0,0,.02-.312,9.7,9.7,0,0,0-2.148-3.672.579.579,0,0,0-.273-.156.441.441,0,0,0-.312.039L4.883-13.2A7.48,7.48,0,0,0,2.5-14.57v-1.914a.5.5,0,0,0-.1-.293.434.434,0,0,0-.254-.176,9.964,9.964,0,0,0-4.3,0,.434.434,0,0,0-.254.176.5.5,0,0,0-.1.293v1.914A7.48,7.48,0,0,0-4.883-13.2l-1.641-.977a.441.441,0,0,0-.312-.039.58.58,0,0,0-.273.156,9.7,9.7,0,0,0-2.148,3.672.515.515,0,0,0,.02.313.421.421,0,0,0,.215.234l1.641.977a8.034,8.034,0,0,0,0,2.734l-1.641.977a.421.421,0,0,0-.215.234.515.515,0,0,0-.02.313A9.7,9.7,0,0,0-7.109-.937a.579.579,0,0,0,.273.156A.441.441,0,0,0-6.523-.82L-4.883-1.8A7.48,7.48,0,0,0-2.5-.43V1.484a.5.5,0,0,0,.1.293.434.434,0,0,0,.254.176,9.964,9.964,0,0,0,4.3,0A.434.434,0,0,0,2.4,1.777a.5.5,0,0,0,.1-.293V-.43A7.48,7.48,0,0,0,4.883-1.8L6.523-.82a.441.441,0,0,0,.313.039.579.579,0,0,0,.273-.156A9.7,9.7,0,0,0,9.258-4.609a.515.515,0,0,0-.02-.312.421.421,0,0,0-.215-.234ZM3.125-7.5a3.009,3.009,0,0,1-.918,2.207A3.009,3.009,0,0,1,0-4.375a3.009,3.009,0,0,1-2.207-.918A3.009,3.009,0,0,1-3.125-7.5a3.009,3.009,0,0,1,.918-2.207A3.009,3.009,0,0,1,0-10.625a3.009,3.009,0,0,1,2.207.918A3.009,3.009,0,0,1,3.125-7.5Z" transform="translate(9.273 17.188)" fill="url(#a)"/></svg>