<svg xmlns="http://www.w3.org/2000/svg" xmlns:xlink="http://www.w3.org/1999/xlink" width="12.857" height="20" viewBox="0 0 12.857 20"><defs><linearGradient id="a" y1="0.42" x2="1" y2="0.42" gradientUnits="objectBoundingBox"><stop offset="0" stop-color="#ee0979"/><stop offset="1" stop-color="#ff6a00"/></linearGradient></defs><path d="M121.061,39.679H124.3a.548.548,0,0,0,.554-.527.536.536,0,0,0-.536-.545h-3.259a.536.536,0,0,1-.536-.545.548.548,0,0,1,.554-.527h3.415a.355.355,0,0,0,.357-.366,5.375,5.375,0,0,0-3.246-4.732.357.357,0,0,0-.5.326v1.585a.548.548,0,0,1-.527.554.536.536,0,0,1-.545-.536v-1.83a.536.536,0,0,0-1.071,0v2.527a.548.548,0,0,1-.527.554.536.536,0,0,1-.545-.536V32.536a.536.536,0,0,0-1.071,0v1.813a.548.548,0,0,1-.527.554.536.536,0,0,1-.545-.536v-1.6a.356.356,0,0,0-.5-.326A5.372,5.372,0,0,0,112,37.17a.355.355,0,0,0,.357.366h3.415a.548.548,0,0,1,.554.527.536.536,0,0,1-.536.545h-3.241a.548.548,0,0,0-.554.527.536.536,0,0,0,.536.545h3.241a.548.548,0,0,1,.554.527.536.536,0,0,1-.536.545h-3.241a.548.548,0,0,0-.554.527.536.536,0,0,0,.536.545h3.241a.548.548,0,0,1,.554.527.536.536,0,0,1-.536.545H112.36a.355.355,0,0,0-.357.366,5.44,5.44,0,0,0,.353,1.732.353.353,0,0,0,.33.223h11.478a.35.35,0,0,0,.33-.223,5.207,5.207,0,0,0,.353-1.732.355.355,0,0,0-.357-.366h-3.415a.548.548,0,0,1-.554-.527.536.536,0,0,1,.536-.545H124.3a.548.548,0,0,0,.554-.527.536.536,0,0,0-.536-.545h-3.241a.536.536,0,1,1-.013-1.071Zm-7.746,6.9a5.264,5.264,0,0,0,3.366,1.821.36.36,0,0,1,.317.353v1.817a1.429,1.429,0,1,0,2.857,0V48.754a.354.354,0,0,1,.317-.353,5.213,5.213,0,0,0,3.366-1.821.18.18,0,0,0-.138-.295H113.45A.178.178,0,0,0,113.316,46.58Z" transform="translate(-111.999 -32)" fill="url(#a)"/></svg>