<svg xmlns="http://www.w3.org/2000/svg" xmlns:xlink="http://www.w3.org/1999/xlink" width="45" height="45" viewBox="0 0 45 45"><defs><linearGradient id="a" y1="0.5" x2="1" y2="0.5" gradientUnits="objectBoundingBox"><stop offset="0" stop-color="#ee0979"/><stop offset="1" stop-color="#ff6a00"/></linearGradient></defs><g transform="translate(-215 -611)"><path d="M22.5,0A22.6,22.6,0,0,1,39.414,7.662,22.231,22.231,0,0,1,45,22.5,22.5,22.5,0,1,1,22.5,0Z" transform="translate(215 611)" fill="url(#a)"/><path d="M61.542,74.724A2.681,2.681,0,1,0,64.25,77.4,2.7,2.7,0,0,0,61.542,74.724ZM69.667,77.4a8.125,8.125,0,1,0-12.188,6.971l1.355-2.346A5.288,5.288,0,0,1,56.125,77.4a5.417,5.417,0,0,1,10.833,0A5.288,5.288,0,0,1,64.25,82.03L65.6,84.376A8.069,8.069,0,0,0,69.667,77.4ZM61.542,64A13.513,13.513,0,0,0,48,77.4,13.354,13.354,0,0,0,54.771,89l1.354-2.346A10.657,10.657,0,0,1,50.708,77.4a10.834,10.834,0,0,1,21.668,0,10.576,10.576,0,0,1-5.417,9.249L68.313,89a13.354,13.354,0,0,0,6.771-11.6A13.513,13.513,0,0,0,61.542,64Z" transform="translate(176 557)" fill="#111625"/></g></svg>