<svg xmlns="http://www.w3.org/2000/svg" xmlns:xlink="http://www.w3.org/1999/xlink" width="21.544" height="20" viewBox="0 0 21.544 20"><defs><linearGradient id="a" y1="0.425" x2="1" y2="0.425" gradientUnits="objectBoundingBox"><stop offset="0" stop-color="#ee0979"/><stop offset="1" stop-color="#ff6a00"/></linearGradient></defs><path d="M51.36,58.764a2.322,2.322,0,0,0-2.318,1.582H47.171L45.806,56.24a.769.769,0,0,0-.731-.529H45.06a.76.76,0,0,0-.721.558L42.2,63.737l-.3-1.8-2.215-13.3a.772.772,0,0,0-1.51-.063L35.626,60.346H32.769a.769.769,0,1,0,0,1.539h3.462a.767.767,0,0,0,.745-.582l1.8-8.761,2.467,14.806a.764.764,0,0,0,.717.64H42a.772.772,0,0,0,.741-.558l2.39-8.348.755,2.275a.776.776,0,0,0,.731.529h2.457a2.309,2.309,0,1,0,2.284-3.121Z" transform="translate(-32 -47.987)" fill="url(#a)"/></svg>